# xmcd
#
# Track frame offsets:
#	150
#	13034
#	24797
#	36417
#	47988
#	59676
#	73514
#	87018
#	98114
#	110090
#	122433
#	134314
#	147234
#	161068
#	174147
#	186425
#	198692
#	209947
#	222797
#	234514
#	248760
#	261083
#	272443
#	284048
#	296630
#	308468
#	321134
#	333613
#
# Disc length: 4612 seconds
#
# Revision: 1
# Processed by: cddbd v1.5.2PL0 Copyright (c) Steve Scherf et al.
# Submitted via: audiograbber 1.83.01
#
DISCID=af12021c
DTITLE=Mavis Rivers - The Tanza, Stebbing and Zodiac Years 1949 to 1952
DYEAR=2013
DGENRE=Vocal
TTITLE0=I'll String Along With You
TTITLE1=Dear Hearts and Gentle People
TTITLE2=Canadian Capers
TTITLE3=Candy and Cake
TTITLE4=Let's Do It Again
TTITLE5=Choc'late Ice Cream Cone
TTITLE6=Columbus Stockade Blues
TTITLE7=Isa Lei
TTITLE8=Fijian Holiday
TTITLE9=How High The Moon
TTITLE10=My South Sea Island Dream
TTITLE11=Farewell Samoa
TTITLE12=Mixed Emotions
TTITLE13=Manhatten
TTITLE14=Come To Me
TTITLE15=The Maori Way
TTITLE16=If Teardrops Were Pennies
TTITLE17=There's Always Red Roses
TTITLE18=Of Course You Couldn't Know
TTITLE19=Guy Is A Guy
TTITLE20=S'Wonderful
TTITLE21=Wishin'
TTITLE22=Kiss Of Fire
TTITLE23=Button Up Your Overcoat
TTITLE24=Noodlin' Rag
TTITLE25=My Sugar Is So Refined
TTITLE26=All Of Me
TTITLE27=Promises
EXTD=
EXTT0=
EXTT1=
EXTT2=
EXTT3=
EXTT4=
EXTT5=
EXTT6=
EXTT7=
EXTT8=
EXTT9=
EXTT10=
EXTT11=
EXTT12=
EXTT13=
EXTT14=
EXTT15=
EXTT16=
EXTT17=
EXTT18=
EXTT19=
EXTT20=
EXTT21=
EXTT22=
EXTT23=
EXTT24=
EXTT25=
EXTT26=
EXTT27=
PLAYORDER=
